# xmcd CD database file
#
# Track frame offsets:
#	150
#	20535
#	29805
#	49148
#	64919
#	76766
#	91674
#	103857
#	116185
#	131783
#	145506
#	155004
#
# Disc length: 2242 seconds
#
# Revision: 0
# Processed by: cddbd v1.5.2PL0 Copyright (c) Steve Scherf et al.
# Submitted via: CDex 1.70beta3
#
DISCID=a408c00c
DTITLE=Herbie Mann - Flamingo
DYEAR=1955
DGENRE=Jazz
TTITLE0=I've Told Ev'ry Little Star
TTITLE1=Love Is A Simple Thing
TTITLE2=There's No You
TTITLE3=Sorimao
TTITLE4=The Influential Mr. Cohn
TTITLE5=A One Way Love
TTITLE6=The Surrey With The Fringe On Top
TTITLE7=Flamingo
TTITLE8=Littile Orphan Annie
TTITLE9=Jasmin
TTITLE10=Beverly
TTITLE11=Woodchuck
EXTD=YEAR: 1955
EXTT0=
EXTT1=
EXTT2=
EXTT3=
EXTT4=
EXTT5=
EXTT6=
EXTT7=
EXTT8=
EXTT9=
EXTT10=
EXTT11=
PLAYORDER=
